<svg width="24" height="24" viewBox="0 0 24 24" fill="none" xmlns="http://www.w3.org/2000/svg">
<path d="M19 14V6C18.9984 5.47005 18.7872 4.96227 18.4125 4.58753C18.0377 4.2128 17.5299 4.00158 17 4H3C2.47005 4.00158 1.96227 4.2128 1.58753 4.58753C1.2128 4.96227 1.00158 5.47005 1 6V14C1.00158 14.5299 1.2128 15.0377 1.58753 15.4125C1.96227 15.7872 2.47005 15.9984 3 16H17C17.5299 15.9984 18.0377 15.7872 18.4125 15.4125C18.7872 15.0377 18.9984 14.5299 19 14ZM17 14H3V6H17V14ZM10 7C9.40666 7 8.82664 7.17595 8.33329 7.50559C7.83994 7.83524 7.45542 8.30377 7.22836 8.85195C7.0013 9.40013 6.94189 10.0033 7.05764 10.5853C7.1734 11.1672 7.45912 11.7018 7.87868 12.1213C8.29824 12.5409 8.83279 12.8266 9.41473 12.9424C9.99667 13.0581 10.5999 12.9987 11.1481 12.7716C11.6962 12.5446 12.1648 12.1601 12.4944 11.6667C12.8241 11.1734 13 10.5933 13 10C13 9.20435 12.6839 8.44129 12.1213 7.87868C11.5587 7.31607 10.7956 7 10 7ZM23 7V18C22.9984 18.5299 22.7872 19.0377 22.4125 19.4125C22.0377 19.7872 21.5299 19.9984 21 20H4V18H21V7H23Z" fill="#4D4D4D"/>
</svg>
