<svg width="53" height="52" viewBox="0 0 53 52" fill="none" xmlns="http://www.w3.org/2000/svg">
<path d="M41.9252 21.754C41.2726 18.4531 39.6105 15.4366 37.1687 13.1216C34.7269 10.8066 31.6261 9.30749 28.2952 8.83167C24.9642 8.35585 21.5677 8.92681 18.5754 10.4656C15.5831 12.0043 13.1429 14.4348 11.5922 17.421C8.28828 17.7823 5.24834 19.3957 3.09754 21.9297C0.946743 24.4636 -0.151405 27.7253 0.0289217 31.044C0.209248 34.3628 1.65434 37.4863 4.06703 39.7722C6.47972 42.0582 9.67659 43.3328 13.0002 43.334H41.1672C43.9849 43.3628 46.7022 42.2892 48.7393 40.3424C50.7764 38.3956 51.972 35.7297 52.0709 32.9137C52.1698 30.0976 51.1643 27.3544 49.2688 25.2695C47.3732 23.1845 44.738 21.9229 41.9252 21.754ZM41.1672 39.001H13.0002C10.7851 39.0024 8.65372 38.1549 7.04435 36.6328C5.43498 35.1108 4.47004 33.0299 4.34797 30.8182C4.22591 28.6065 4.95601 26.432 6.38812 24.7421C7.82022 23.0522 9.84544 21.9754 12.0472 21.733L14.3652 21.495L15.4482 19.437C16.5804 17.2442 18.3669 15.4581 20.5599 14.3264C22.7529 13.1947 25.2437 12.7734 27.6869 13.121C30.1301 13.4687 32.4046 14.568 34.1949 16.2665C35.9852 17.9649 37.2026 20.1784 37.6782 22.6L38.3282 25.85L41.6432 26.088C43.3191 26.2019 44.8848 26.9637 46.0087 28.212C47.1326 29.4603 47.7264 31.0971 47.6644 32.7757C47.6024 34.4543 46.8894 36.0428 45.6765 37.2048C44.4636 38.3668 42.8459 39.011 41.1662 39.001H41.1672ZM17.3332 28.167H22.8582V34.667H29.1412V28.167H34.6662L26.0002 19.5L17.3332 28.167Z" fill="#BEBEBE" fill-opacity="0.63"/>
</svg>
