<svg width="24" height="24" viewBox="0 0 24 24" fill="none" xmlns="http://www.w3.org/2000/svg">
<path d="M12 2C10.0222 2 8.08879 2.58649 6.4443 3.6853C4.79981 4.78412 3.51809 6.3459 2.76121 8.17317C2.00433 10.0004 1.8063 12.0111 2.19215 13.9509C2.578 15.8907 3.53041 17.6725 4.92894 19.0711C6.32746 20.4696 8.10929 21.422 10.0491 21.8079C11.9889 22.1937 13.9996 21.9957 15.8268 21.2388C17.6541 20.4819 19.2159 19.2002 20.3147 17.5557C21.4135 15.9112 22 13.9778 22 12C22 10.6868 21.7413 9.38642 21.2388 8.17317C20.7363 6.95991 19.9997 5.85752 19.0711 4.92893C18.1425 4.00035 17.0401 3.26375 15.8268 2.7612C14.6136 2.25866 13.3132 2 12 2V2ZM12 18.5C11.6022 18.5 11.2206 18.342 10.9393 18.0607C10.658 17.7794 10.5 17.3978 10.5 17H13.5C13.5 17.3978 13.342 17.7794 13.0607 18.0607C12.7794 18.342 12.3978 18.5 12 18.5ZM16 16H8C7.73479 16 7.48043 15.8946 7.2929 15.7071C7.10536 15.5196 7 15.2652 7 15C7 14.7348 7.10536 14.4804 7.2929 14.2929C7.48043 14.1054 7.73479 14 8 14V11C8.00288 10.1154 8.29888 9.25679 8.84169 8.55836C9.38451 7.85993 10.1435 7.36114 11 7.14V6.5C11 6.23478 11.1054 5.98043 11.2929 5.79289C11.4804 5.60536 11.7348 5.5 12 5.5C12.2652 5.5 12.5196 5.60536 12.7071 5.79289C12.8946 5.98043 13 6.23478 13 6.5V7.14C13.8565 7.36114 14.6155 7.85993 15.1583 8.55836C15.7011 9.25679 15.9971 10.1154 16 11V14C16.2652 14 16.5196 14.1054 16.7071 14.2929C16.8946 14.4804 17 14.7348 17 15C17 15.2652 16.8946 15.5196 16.7071 15.7071C16.5196 15.8946 16.2652 16 16 16Z" fill="#34CA98"/>
</svg>
