<svg width="24" height="24" viewBox="0 0 24 24" fill="none" xmlns="http://www.w3.org/2000/svg">
<path d="M3.00005 17.4601V20.5001C3.00005 20.6327 3.05272 20.7598 3.14649 20.8536C3.24026 20.9474 3.36744 21.0001 3.50005 21.0001H6.54005C6.60563 21.0009 6.67067 20.988 6.73095 20.9622C6.79124 20.9363 6.84544 20.8981 6.89005 20.8501L17.81 9.94006L14.06 6.19006L3.15005 17.1001C3.10178 17.1466 3.06357 17.2026 3.03777 17.2645C3.01197 17.3264 2.99913 17.393 3.00005 17.4601ZM20.71 7.04006C20.8963 6.8527 21.0008 6.59925 21.0008 6.33506C21.0008 6.07087 20.8963 5.81742 20.71 5.63006L18.37 3.29006C18.1827 3.10381 17.9292 2.99927 17.665 2.99927C17.4009 2.99927 17.1474 3.10381 16.96 3.29006L15.13 5.12006L18.88 8.87006L20.71 7.04006Z" fill="#AAAAAA"/>
</svg>
