<svg width="24" height="24" viewBox="0 0 24 24" fill="none" xmlns="http://www.w3.org/2000/svg">
<path d="M12 12.25C12.445 12.25 12.88 12.118 13.25 11.8708C13.62 11.6236 13.9084 11.2722 14.0787 10.861C14.249 10.4499 14.2936 9.9975 14.2068 9.56105C14.12 9.12459 13.9057 8.72368 13.591 8.40901C13.2763 8.09434 12.8754 7.88005 12.439 7.79323C12.0025 7.70642 11.5501 7.75097 11.139 7.92127C10.7278 8.09157 10.3764 8.37996 10.1292 8.74997C9.88196 9.11998 9.75 9.55499 9.75 10C9.75079 10.5965 9.9881 11.1683 10.4099 11.5901C10.8317 12.0119 11.4035 12.2492 12 12.25ZM16.5 16.25C16.5 14.75 13.5 14 12 14C10.5 14 7.5 14.75 7.5 16.25V17H16.5V16.25ZM19 3H5C4.47005 3.00158 3.96227 3.2128 3.58753 3.58753C3.2128 3.96227 3.00158 4.47005 3 5V19C3.00158 19.5299 3.2128 20.0377 3.58753 20.4125C3.96227 20.7872 4.47005 20.9984 5 21H19C19.5299 20.9984 20.0377 20.7872 20.4125 20.4125C20.7872 20.0377 20.9984 19.5299 21 19V5C20.9984 4.47005 20.7872 3.96227 20.4125 3.58753C20.0377 3.2128 19.5299 3.00158 19 3ZM19 19H5V5H19V19Z" fill="#4D4D4D"/>
</svg>
