<svg width="24" height="24" viewBox="0 0 24 24" fill="none" xmlns="http://www.w3.org/2000/svg">
<path d="M12 2C10.0222 2 8.08879 2.58649 6.4443 3.6853C4.79981 4.78412 3.51809 6.3459 2.76121 8.17317C2.00433 10.0004 1.8063 12.0111 2.19215 13.9509C2.578 15.8907 3.53041 17.6725 4.92894 19.0711C6.32746 20.4696 8.10929 21.422 10.0491 21.8079C11.9889 22.1937 13.9996 21.9957 15.8268 21.2388C17.6541 20.4819 19.2159 19.2002 20.3147 17.5557C21.4135 15.9112 22 13.9778 22 12C22 10.6868 21.7413 9.38642 21.2388 8.17317C20.7363 6.95991 19.9997 5.85752 19.0711 4.92893C18.1425 4.00035 17.0401 3.26375 15.8268 2.7612C14.6136 2.25866 13.3132 2 12 2ZM7.07 18.28C7.5 17.38 10.12 16.5 12 16.5C13.88 16.5 16.51 17.38 16.93 18.28C15.5282 19.3938 13.7905 20.0001 12 20.0001C10.2095 20.0001 8.47185 19.3938 7.07 18.28ZM18.36 16.83C16.93 15.09 13.46 14.5 12 14.5C10.54 14.5 7.07 15.09 5.64 16.83C4.73535 15.6444 4.18011 14.2295 4.03695 12.7451C3.89379 11.2606 4.16841 9.76573 4.82982 8.4291C5.49123 7.09246 6.51309 5.96731 7.78006 5.18065C9.04704 4.39398 10.5087 3.97712 12 3.97712C13.4913 3.97712 14.953 4.39398 16.2199 5.18065C17.4869 5.96731 18.5088 7.09246 19.1702 8.4291C19.8316 9.76573 20.1062 11.2606 19.9631 12.7451C19.8199 14.2295 19.2647 15.6444 18.36 16.83ZM12 6C11.3078 6 10.6311 6.20527 10.0555 6.58986C9.47994 6.97444 9.03133 7.52107 8.76643 8.16061C8.50152 8.80015 8.43221 9.50388 8.56726 10.1828C8.7023 10.8617 9.03565 11.4854 9.52513 11.9749C10.0146 12.4644 10.6383 12.7977 11.3172 12.9327C11.9961 13.0678 12.6999 12.9985 13.3394 12.7336C13.9789 12.4687 14.5256 12.0201 14.9101 11.4445C15.2947 10.8689 15.5 10.1922 15.5 9.5C15.5012 9.04004 15.4115 8.58438 15.236 8.1592C15.0605 7.73403 14.8028 7.34772 14.4775 7.02248C14.1523 6.69724 13.766 6.43947 13.3408 6.264C12.9156 6.08853 12.46 5.99881 12 6ZM12 11C11.7033 11 11.4133 10.912 11.1666 10.7472C10.92 10.5824 10.7277 10.3481 10.6142 10.074C10.5007 9.79994 10.4709 9.49834 10.5288 9.20736C10.5867 8.91639 10.7296 8.64912 10.9393 8.43934C11.1491 8.22956 11.4164 8.0867 11.7074 8.02882C11.9983 7.97094 12.2999 8.00065 12.574 8.11418C12.8481 8.22771 13.0824 8.41997 13.2472 8.66665C13.412 8.91332 13.5 9.20333 13.5 9.5C13.5 9.89782 13.342 10.2794 13.0607 10.5607C12.7794 10.842 12.3978 11 12 11Z" fill="#4D4D4D"/>
</svg>
