<svg width="24" height="24" viewBox="0 0 24 24" fill="none" xmlns="http://www.w3.org/2000/svg">
<path d="M19.4998 12C19.4998 11.77 19.4898 11.55 19.4698 11.32L21.3298 9.91003C21.5234 9.76166 21.6565 9.54804 21.7043 9.30891C21.7521 9.06978 21.7114 8.82142 21.5898 8.61003L19.7198 5.38003C19.5999 5.16821 19.406 5.00817 19.1753 4.93065C18.9446 4.85312 18.6933 4.86359 18.4698 4.96003L16.3198 5.87003C15.9509 5.60896 15.5593 5.38139 15.1498 5.19003L14.8598 2.88003C14.8306 2.63783 14.7138 2.41469 14.5314 2.25261C14.3491 2.09054 14.1138 2.0007 13.8698 2.00003H10.1398C9.89417 1.99825 9.65644 2.08698 9.472 2.24929C9.28756 2.41159 9.16932 2.63612 9.13985 2.88003L8.84985 5.19003C8.44037 5.38139 8.04882 5.60896 7.67985 5.87003L5.52985 4.96003C5.30637 4.86359 5.05514 4.85312 4.82442 4.93065C4.59369 5.00817 4.39975 5.16821 4.27985 5.38003L2.40985 8.62003C2.28868 8.83153 2.24826 9.07977 2.29606 9.31878C2.34386 9.5578 2.47666 9.7714 2.66985 9.92003L4.52985 11.33C4.50985 11.55 4.49985 11.77 4.49985 12C4.49985 12.23 4.50985 12.45 4.52985 12.68L2.66985 14.09C2.47631 14.2384 2.34324 14.452 2.29542 14.6911C2.24759 14.9303 2.28826 15.1786 2.40985 15.39L4.27985 18.62C4.39975 18.8318 4.59369 18.9919 4.82442 19.0694C5.05514 19.1469 5.30637 19.1365 5.52985 19.04L7.67985 18.13C8.04882 18.3911 8.44037 18.6187 8.84985 18.81L9.13985 21.12C9.16912 21.3622 9.28592 21.5854 9.46826 21.7474C9.6506 21.9095 9.88589 21.9993 10.1298 22H13.8598C14.1038 21.9993 14.3391 21.9095 14.5214 21.7474C14.7038 21.5854 14.8206 21.3622 14.8498 21.12L15.1398 18.81C15.5493 18.6187 15.9409 18.3911 16.3098 18.13L18.4598 19.04C18.6833 19.1365 18.9346 19.1469 19.1653 19.0694C19.396 18.9919 19.5899 18.8318 19.7098 18.62L21.5798 15.39C21.701 15.1785 21.7414 14.9303 21.6936 14.6913C21.6458 14.4523 21.513 14.2387 21.3198 14.09L19.4598 12.68C19.4881 12.4545 19.5015 12.2273 19.4998 12ZM12.0398 15.5C11.3476 15.5 10.6709 15.2948 10.0954 14.9102C9.51978 14.5256 9.07118 13.979 8.80627 13.3394C8.54136 12.6999 8.47205 11.9961 8.6071 11.3172C8.74215 10.6383 9.07549 10.0146 9.56498 9.52515C10.0545 9.03567 10.6781 8.70233 11.357 8.56728C12.036 8.43223 12.7397 8.50154 13.3792 8.76645C14.0188 9.03135 14.5654 9.47996 14.95 10.0555C15.3346 10.6311 15.5398 11.3078 15.5398 12C15.5398 12.9283 15.1711 13.8185 14.5147 14.4749C13.8583 15.1313 12.9681 15.5 12.0398 15.5Z" fill="#34CA98"/>
</svg>
