<svg width="34" height="36" viewBox="0 0 34 36" fill="none" xmlns="http://www.w3.org/2000/svg">
<path d="M9.20814 19.099H2.09814V35.198H9.20814V19.099Z" fill="#FFC843"/>
<path d="M2.098 19.099H0V35.198H2.098V19.099Z" fill="#E0B03B"/>
<path d="M21.1593 13.7321H14.0493V35.1981H21.1593V13.7321Z" fill="#00AF41"/>
<path d="M14.0492 13.7321H11.9512V35.1981H14.0492V13.7321Z" fill="#009638"/>
<path d="M33.11 8.66895H26V35.1979H33.11V8.66895Z" fill="#0071CE"/>
<path d="M25.9999 8.66895H23.9019V35.1979H25.9999V8.66895Z" fill="#005FAD"/>
<path d="M23.5338 0L25.4338 1.9L21.6028 5.739L18.7728 2.909L9.92784 11.754L7.34884 9.174L0.214844 16.308L1.25884 17.352L7.34784 11.263L9.92684 13.842L18.7728 5L21.6028 7.83L26.4808 2.948L28.3808 4.848V0H23.5338Z" fill="#BBBBBB"/>
</svg>
