<svg width="24" height="24" viewBox="0 0 24 24" fill="none" xmlns="http://www.w3.org/2000/svg">
<path d="M10.9998 8.74995V12.4299C11.001 12.6033 11.0467 12.7734 11.1325 12.9239C11.2183 13.0745 11.3413 13.2006 11.4898 13.2899L14.6098 15.1399C14.7813 15.2402 14.9853 15.2692 15.178 15.2206C15.3706 15.1719 15.5364 15.0496 15.6398 14.8799C15.6906 14.7953 15.7243 14.7015 15.7387 14.6038C15.7532 14.5062 15.7482 14.4066 15.724 14.3109C15.6998 14.2152 15.657 14.1252 15.5979 14.0461C15.5388 13.9669 15.4647 13.9003 15.3798 13.8499L12.5098 12.1399V8.73995C12.5024 8.54261 12.4193 8.3557 12.2778 8.21793C12.1363 8.08017 11.9473 8.00212 11.7498 7.99995C11.5513 8.00126 11.3613 8.0807 11.2209 8.22106C11.0806 8.36143 11.0011 8.55144 10.9998 8.74995ZM20.9998 9.49995V4.20995C20.9984 4.11208 20.9684 4.01678 20.9133 3.93584C20.8583 3.8549 20.7807 3.7919 20.6902 3.75463C20.5997 3.71737 20.5003 3.70748 20.4042 3.7262C20.3081 3.74492 20.2197 3.79143 20.1498 3.85995L18.3698 5.63995C16.9327 4.20015 15.0501 3.28972 13.0292 3.0571C11.0082 2.82447 8.96803 3.28339 7.24134 4.35901C5.51466 5.43462 4.20331 7.06349 3.52112 8.98001C2.83894 10.8965 2.82617 12.9876 3.48489 14.9123C4.14361 16.837 5.43497 18.4818 7.14839 19.5784C8.86181 20.675 10.8962 21.1588 12.9199 20.9509C14.9435 20.743 16.837 19.8556 18.2917 18.4335C19.7463 17.0114 20.6762 15.1384 20.9298 13.1199C20.9469 12.9789 20.9337 12.8359 20.8911 12.7003C20.8485 12.5648 20.7776 12.4399 20.683 12.3339C20.5884 12.2279 20.4722 12.1433 20.3424 12.0858C20.2125 12.0282 20.0719 11.9989 19.9298 11.9999C19.6896 11.999 19.4574 12.0859 19.2769 12.2443C19.0964 12.4027 18.9801 12.6217 18.9498 12.8599C18.7348 14.571 17.8971 16.1429 16.5967 17.2755C15.2962 18.4081 13.6242 19.022 11.8998 18.9999C10.0857 18.9495 8.35984 18.2064 7.0766 16.9231C5.79337 15.6399 5.05022 13.914 4.9998 12.0999C4.97965 10.7069 5.37566 9.33949 6.13713 8.17279C6.89861 7.00608 7.99091 6.09315 9.27423 5.55082C10.5576 5.0085 11.9735 4.86146 13.3409 5.12852C14.7083 5.39558 15.9649 6.0646 16.9498 7.04995L14.8598 9.13995C14.7878 9.2093 14.7383 9.29861 14.7176 9.39638C14.6969 9.49415 14.706 9.59587 14.7437 9.68843C14.7813 9.78099 14.8459 9.86014 14.929 9.91567C15.0121 9.9712 15.1099 10.0006 15.2098 9.99995H20.4998C20.6324 9.99995 20.7596 9.94727 20.8534 9.8535C20.9471 9.75973 20.9998 9.63255 20.9998 9.49995Z" fill="#34CA98"/>
</svg>
