<svg width="18" height="16" viewBox="0 0 18 16" fill="none" xmlns="http://www.w3.org/2000/svg">
<path d="M15.92 1.01C15.8187 0.714252 15.6272 0.45772 15.3725 0.276531C15.1178 0.0953426 14.8126 -0.00137482 14.5 -8.19555e-07H3.5C3.18761 -0.000477732 2.88286 0.0965901 2.6283 0.277655C2.37373 0.458719 2.18205 0.714746 2.08 1.01L0 7V14.5C0 14.8978 0.158035 15.2794 0.43934 15.5607C0.720644 15.842 1.10218 16 1.5 16C1.89782 16 2.27936 15.842 2.56066 15.5607C2.84196 15.2794 3 14.8978 3 14.5V14H15V14.5C15 14.8978 15.158 15.2794 15.4393 15.5607C15.7206 15.842 16.1022 16 16.5 16C16.8978 16 17.2794 15.842 17.5607 15.5607C17.842 15.2794 18 14.8978 18 14.5V7L15.92 1.01ZM4.5 11C4.20333 11 3.91332 10.912 3.66664 10.7472C3.41997 10.5824 3.22771 10.3481 3.11418 10.074C3.00065 9.79994 2.97094 9.49833 3.02882 9.20736C3.0867 8.91639 3.22956 8.64912 3.43934 8.43934C3.64912 8.22956 3.91639 8.0867 4.20736 8.02882C4.49834 7.97094 4.79994 8.00065 5.07403 8.11418C5.34811 8.22771 5.58238 8.41997 5.7472 8.66664C5.91203 8.91332 6 9.20333 6 9.5C6 9.89782 5.84196 10.2794 5.56066 10.5607C5.27936 10.842 4.89782 11 4.5 11V11ZM13.5 11C13.2033 11 12.9133 10.912 12.6666 10.7472C12.42 10.5824 12.2277 10.3481 12.1142 10.074C12.0006 9.79994 11.9709 9.49833 12.0288 9.20736C12.0867 8.91639 12.2296 8.64912 12.4393 8.43934C12.6491 8.22956 12.9164 8.0867 13.2074 8.02882C13.4983 7.97094 13.7999 8.00065 14.074 8.11418C14.3481 8.22771 14.5824 8.41997 14.7472 8.66664C14.912 8.91332 15 9.20333 15 9.5C15 9.89782 14.842 10.2794 14.5607 10.5607C14.2794 10.842 13.8978 11 13.5 11ZM2.81 5L3.85 2H14.14L15.18 5H2.81Z" fill="#4D4D4D"/>
</svg>
