<svg width="34" height="31" viewBox="0 0 34 31" fill="none" xmlns="http://www.w3.org/2000/svg">
<path d="M2.628 4.71899H28.91C29.6063 4.7211 30.2736 4.99866 30.7659 5.49105C31.2583 5.98344 31.5359 6.65065 31.538 7.34699V10.501C31.5359 11.1973 31.2583 11.8646 30.7659 12.3569C30.2736 12.8493 29.6063 13.1269 28.91 13.129H2.628C1.93166 13.1269 1.26444 12.8493 0.772054 12.3569C0.279665 11.8646 0.00211014 11.1973 0 10.501L0 7.34699C0.00211014 6.65065 0.279665 5.98344 0.772054 5.49105C1.26444 4.99866 1.93166 4.7211 2.628 4.71899Z" fill="#A86A3F"/>
<path d="M8.38404 7.52996L24.837 3.16796C25.1054 3.09669 25.391 3.13396 25.632 3.27171C25.8731 3.40945 26.0502 3.63659 26.125 3.90396L28.858 13.996C28.9293 14.2643 28.892 14.5499 28.7543 14.791C28.6165 15.032 28.3894 15.2091 28.122 15.284L6.70304 20.984C6.4347 21.0552 6.14909 21.018 5.90804 20.8802C5.66698 20.7425 5.48987 20.5153 5.41504 20.248L3.41504 12.837L8.38404 7.52996Z" fill="#3DB39E"/>
<path d="M25.9931 13.681L22.4451 14.627C22.3794 14.6443 22.311 14.6484 22.2437 14.6393C22.1764 14.6301 22.1116 14.6078 22.053 14.5735C21.9943 14.5393 21.943 14.4939 21.9019 14.4398C21.8609 14.3858 21.8308 14.3242 21.8136 14.2585C21.7963 14.1928 21.7921 14.1244 21.8013 14.0572C21.8105 13.9899 21.8328 13.9251 21.867 13.8664C21.9012 13.8078 21.9467 13.7565 22.0007 13.7154C22.0548 13.6743 22.1164 13.6443 22.1821 13.627L25.2311 12.812L23.6021 6.712L20.5531 7.52701C20.4204 7.56188 20.2794 7.54265 20.161 7.47355C20.0426 7.40444 19.9564 7.29111 19.9216 7.15851C19.8867 7.0259 19.9059 6.88487 19.975 6.76644C20.0441 6.64801 20.1575 6.56188 20.2901 6.52701L23.8381 5.58101C23.9036 5.5596 23.973 5.55233 24.0416 5.55964C24.1102 5.56696 24.1765 5.58871 24.2361 5.62347C24.2957 5.65823 24.3473 5.70521 24.3874 5.76131C24.4276 5.81742 24.4554 5.88139 24.4691 5.94901L26.3611 13.049C26.3826 13.1147 26.39 13.1841 26.3828 13.2529C26.3756 13.3216 26.3538 13.388 26.3191 13.4477C26.2843 13.5074 26.2373 13.5591 26.1811 13.5993C26.1249 13.6395 26.0608 13.6674 25.9931 13.681ZM11.2751 17.649L7.72706 18.595C7.66147 18.6164 7.59209 18.6237 7.52349 18.6164C7.45489 18.6091 7.38861 18.5873 7.32902 18.5525C7.26942 18.5178 7.21784 18.4708 7.17769 18.4147C7.13754 18.3586 7.10973 18.2946 7.09606 18.227L5.20405 11.127C5.18265 11.0614 5.17537 10.992 5.18269 10.9234C5.19001 10.8548 5.21176 10.7886 5.24652 10.729C5.28128 10.6694 5.32825 10.6178 5.38436 10.5776C5.44046 10.5375 5.50443 10.5097 5.57206 10.496L9.12005 9.55001C9.18571 9.53274 9.25414 9.52857 9.32141 9.53775C9.38868 9.54692 9.45349 9.56925 9.51213 9.60347C9.57077 9.63769 9.62209 9.68312 9.66318 9.73717C9.70426 9.79123 9.73429 9.85285 9.75155 9.91851C9.76882 9.98417 9.77299 10.0526 9.76382 10.1199C9.75465 10.1871 9.73231 10.2519 9.69809 10.3106C9.66388 10.3692 9.61844 10.4205 9.56439 10.4616C9.51034 10.5027 9.44872 10.5327 9.38305 10.55L6.33406 11.365L7.96306 17.465L11.0121 16.65C11.0776 16.6286 11.147 16.6213 11.2156 16.6286C11.2842 16.636 11.3505 16.6577 11.4101 16.6925C11.4697 16.7272 11.5213 16.7742 11.5614 16.8303C11.6016 16.8864 11.6294 16.9504 11.6431 17.018C11.6612 17.0836 11.6661 17.1522 11.6573 17.2197C11.6486 17.2872 11.6264 17.3523 11.5921 17.4111C11.5578 17.4699 11.5121 17.5213 11.4576 17.5621C11.4032 17.603 11.3411 17.6325 11.2751 17.649Z" fill="#78CABB"/>
<path d="M0.210082 11.2099C4.88808 8.52895 17.5041 1.14395 17.5041 1.14395C17.7451 1.00284 18.032 0.962346 18.3026 1.03122C18.5732 1.1001 18.8059 1.27281 18.9501 1.51195L24.2061 10.5529C24.2737 10.6719 24.3171 10.8031 24.3339 10.9389C24.3507 11.0747 24.3405 11.2125 24.3039 11.3443C24.2673 11.4762 24.205 11.5995 24.1206 11.7072C24.0362 11.8149 23.9314 11.9049 23.8121 11.9719L4.57308 23.0099C4.33217 23.1507 4.04554 23.1911 3.77514 23.1222C3.50474 23.0533 3.2723 22.8808 3.12808 22.6419C3.12808 22.6419 1.65608 19.6419 0.184082 17.1229C0.184082 11.2099 0.210082 13.1549 0.210082 11.2099Z" fill="#5ABEAC"/>
<path d="M21.5241 10.264L17.8451 3.90399C17.8124 3.84336 17.7676 3.79012 17.7134 3.74762C17.6593 3.70511 17.5969 3.67425 17.5302 3.65698C17.4636 3.6397 17.3941 3.63639 17.3261 3.64723C17.2581 3.65807 17.1931 3.68284 17.1351 3.71999L13.9551 5.55999C13.8365 5.62974 13.7505 5.74373 13.716 5.87688C13.6815 6.01003 13.7013 6.15144 13.7711 6.26999C13.8408 6.38855 13.9548 6.47453 14.088 6.50904C14.2211 6.54354 14.3625 6.52374 14.4811 6.45399L17.2121 4.87599L20.3661 10.343L17.6351 11.918C17.5165 11.9877 17.4305 12.1017 17.396 12.2349C17.3615 12.368 17.3813 12.5094 17.4511 12.628C17.5208 12.7465 17.6348 12.8325 17.768 12.867C17.9011 12.9015 18.0425 12.8817 18.1611 12.812L21.3411 10.972C21.4003 10.9382 21.4521 10.8929 21.4935 10.8387C21.5349 10.7846 21.5651 10.7226 21.5821 10.6566C21.5992 10.5906 21.6028 10.5219 21.5929 10.4544C21.5829 10.387 21.5595 10.3222 21.5241 10.264ZM7.59507 17.701L4.86207 19.278L1.71207 13.812L4.44507 12.235C4.50377 12.2005 4.5551 12.1547 4.59611 12.1003C4.63713 12.0459 4.66703 11.984 4.68412 11.9181C4.70121 11.8522 4.70514 11.7835 4.69569 11.7161C4.68625 11.6486 4.66361 11.5837 4.62907 11.525C4.59454 11.4663 4.54877 11.415 4.4944 11.374C4.44003 11.3329 4.37811 11.303 4.31218 11.2859C4.24625 11.2689 4.1776 11.2649 4.11015 11.2744C4.0427 11.2838 3.97777 11.3065 3.91907 11.341L0.739074 13.181C0.678441 13.2136 0.625205 13.2584 0.5827 13.3126C0.540195 13.3668 0.509338 13.4292 0.492063 13.4958C0.474789 13.5625 0.471469 13.632 0.482312 13.7C0.493154 13.768 0.517926 13.833 0.555074 13.891L4.23407 20.251C4.26671 20.3116 4.31152 20.3649 4.3657 20.4074C4.41987 20.4499 4.48224 20.4807 4.5489 20.498C4.61556 20.5153 4.68507 20.5186 4.75307 20.5077C4.82107 20.4969 4.88609 20.4721 4.94407 20.435L8.12407 18.595C8.18471 18.5624 8.23794 18.5175 8.28045 18.4634C8.32295 18.4092 8.35381 18.3468 8.37108 18.2802C8.38836 18.2135 8.39168 18.144 8.38084 18.076C8.36999 18.008 8.34522 17.943 8.30807 17.885C8.27449 17.8249 8.22908 17.7723 8.17457 17.7302C8.12006 17.6882 8.05759 17.6576 7.99094 17.6404C7.92429 17.6232 7.85484 17.6197 7.7868 17.6302C7.71876 17.6406 7.65354 17.6647 7.59507 17.701ZM8.93507 8.42399C8.21257 8.83984 7.62961 9.46058 7.25989 10.2077C6.89017 10.9549 6.75031 11.7949 6.85798 12.6215C6.96566 13.4482 7.31603 14.2243 7.86481 14.8518C8.41358 15.4794 9.13611 15.9301 9.94102 16.1469C10.7459 16.3638 11.5971 16.3372 12.3869 16.0703C13.1766 15.8035 13.8695 15.3085 14.378 14.6479C14.8864 13.9872 15.1875 13.1907 15.2432 12.3589C15.299 11.5272 15.1068 10.6975 14.6911 9.97499C14.4154 9.49479 14.0477 9.07368 13.609 8.73575C13.1704 8.39783 12.6694 8.14974 12.1348 8.00567C11.6001 7.86161 11.0423 7.8244 10.4933 7.89618C9.94421 7.96796 9.41471 8.14732 8.93507 8.42399ZM21.5241 10.264L17.8451 3.90399C17.8124 3.84336 17.7676 3.79012 17.7134 3.74762C17.6593 3.70511 17.5969 3.67425 17.5302 3.65698C17.4636 3.6397 17.3941 3.63639 17.3261 3.64723C17.2581 3.65807 17.1931 3.68284 17.1351 3.71999L13.9551 5.55999C13.8964 5.59452 13.845 5.64029 13.804 5.69466C13.763 5.74903 13.7331 5.81095 13.716 5.87688C13.6989 5.94281 13.695 6.01146 13.7045 6.07891C13.7139 6.14636 13.7365 6.21129 13.7711 6.26999C13.8056 6.32869 13.8514 6.38002 13.9057 6.42103C13.9601 6.46205 14.022 6.49195 14.088 6.50904C14.1539 6.52612 14.2225 6.53006 14.29 6.52061C14.3574 6.51117 14.4224 6.48853 14.4811 6.45399L17.2121 4.87599L20.3661 10.343L17.6351 11.918C17.5165 11.9877 17.4305 12.1017 17.396 12.2349C17.3615 12.368 17.3813 12.5094 17.4511 12.628C17.5208 12.7465 17.6348 12.8325 17.768 12.867C17.9011 12.9015 18.0425 12.8817 18.1611 12.812L21.3411 10.972C21.4003 10.9382 21.4521 10.8929 21.4935 10.8387C21.5349 10.7846 21.5651 10.7226 21.5821 10.6566C21.5992 10.5906 21.6028 10.5219 21.5929 10.4544C21.5829 10.387 21.5595 10.3222 21.5241 10.264ZM7.59507 17.701L4.86207 19.278L1.71207 13.812L4.44507 12.235C4.50377 12.2005 4.5551 12.1547 4.59611 12.1003C4.63713 12.0459 4.66703 11.984 4.68412 11.9181C4.70121 11.8522 4.70514 11.7835 4.69569 11.7161C4.68625 11.6486 4.66361 11.5837 4.62907 11.525C4.59454 11.4663 4.54877 11.415 4.4944 11.374C4.44003 11.3329 4.37811 11.303 4.31218 11.2859C4.24625 11.2689 4.1776 11.2649 4.11015 11.2744C4.0427 11.2838 3.97777 11.3065 3.91907 11.341L0.739074 13.181C0.678441 13.2136 0.625205 13.2584 0.5827 13.3126C0.540195 13.3668 0.509338 13.4292 0.492063 13.4958C0.474789 13.5625 0.471469 13.632 0.482312 13.7C0.493154 13.768 0.517926 13.833 0.555074 13.891L4.23407 20.251C4.26671 20.3116 4.31152 20.3649 4.3657 20.4074C4.41987 20.4499 4.48224 20.4807 4.5489 20.498C4.61556 20.5153 4.68507 20.5186 4.75307 20.5077C4.82107 20.4969 4.88609 20.4721 4.94407 20.435L8.12407 18.595C8.18471 18.5624 8.23794 18.5175 8.28045 18.4634C8.32295 18.4092 8.35381 18.3468 8.37108 18.2802C8.38836 18.2135 8.39168 18.144 8.38084 18.076C8.36999 18.008 8.34522 17.943 8.30807 17.885C8.27449 17.8249 8.22908 17.7723 8.17457 17.7302C8.12006 17.6882 8.05759 17.6576 7.99094 17.6404C7.92429 17.6232 7.85484 17.6197 7.7868 17.6302C7.71876 17.6406 7.65354 17.6647 7.59507 17.701ZM8.93507 8.42399C8.21257 8.83984 7.62961 9.46058 7.25989 10.2077C6.89017 10.9549 6.75031 11.7949 6.85798 12.6215C6.96566 13.4482 7.31603 14.2243 7.86481 14.8518C8.41358 15.4794 9.13611 15.9301 9.94102 16.1469C10.7459 16.3638 11.5971 16.3372 12.3869 16.0703C13.1766 15.8035 13.8695 15.3085 14.378 14.6479C14.8864 13.9872 15.1875 13.1907 15.2432 12.3589C15.299 11.5272 15.1068 10.6975 14.6911 9.97499C14.4154 9.49479 14.0477 9.07368 13.609 8.73575C13.1704 8.39783 12.6694 8.14974 12.1348 8.00567C11.6001 7.86161 11.0423 7.8244 10.4933 7.89618C9.94421 7.96796 9.41471 8.14732 8.93507 8.42399Z" fill="#8CD2C5"/>
<path d="M29.961 31H2.628C1.93166 30.9979 1.26444 30.7203 0.772054 30.2279C0.279665 29.7355 0.00211014 29.0683 0 28.372L0 9.44997H29.961C30.6573 9.45208 31.3246 9.72964 31.8169 10.222C32.3093 10.7144 32.5869 11.3816 32.589 12.078V28.373C32.5866 29.0691 32.309 29.7361 31.8166 30.2283C31.3242 30.7205 30.6572 30.9979 29.961 31ZM2.1 9.44997H0V7.34998C0.00236863 7.9062 0.224379 8.43897 0.617693 8.83228C1.01101 9.2256 1.54377 9.44761 2.1 9.44997Z" fill="#C47E4D"/>
<path d="M32.589 24.4299H28.389C27.4131 24.4299 26.4772 24.0423 25.7872 23.3522C25.0971 22.6622 24.7095 21.7263 24.7095 20.7504C24.7095 19.7746 25.0971 18.8387 25.7872 18.1486C26.4772 17.4586 27.4131 17.0709 28.389 17.0709H32.589C32.8675 17.0717 33.1343 17.1827 33.3313 17.3796C33.5282 17.5766 33.6392 17.8434 33.64 18.1219V23.3779C33.6395 23.6566 33.5286 23.9237 33.3316 24.1208C33.1347 24.318 32.8677 24.4291 32.589 24.4299Z" fill="#A86A3F"/>
<path d="M28.3849 18.6479C28.8003 18.6479 29.2063 18.7711 29.5516 19.0019C29.8969 19.2326 30.1661 19.5606 30.3251 19.9443C30.484 20.328 30.5256 20.7503 30.4445 21.1576C30.3635 21.565 30.1635 21.9392 29.8698 22.2329C29.5762 22.5266 29.202 22.7266 28.7946 22.8076C28.3873 22.8886 27.965 22.847 27.5813 22.6881C27.1975 22.5291 26.8696 22.26 26.6388 21.9146C26.4081 21.5693 26.2849 21.1633 26.2849 20.748C26.2873 20.1917 26.5093 19.6589 26.9026 19.2656C27.2959 18.8723 27.8287 18.6503 28.3849 18.6479Z" fill="#EFC75E"/>
<path d="M28.91 22.328C28.5259 22.3254 28.1497 22.2184 27.8217 22.0184C27.4938 21.8185 27.2264 21.5331 27.0481 21.1929C26.8699 20.8526 26.7876 20.4703 26.8099 20.0869C26.8322 19.7034 26.9584 19.3332 27.175 19.016C26.8934 19.208 26.6641 19.4672 26.508 19.7701C26.3519 20.0731 26.2738 20.4102 26.281 20.751C26.2833 21.3072 26.5054 21.84 26.8987 22.2333C27.292 22.6266 27.8247 22.8486 28.381 22.851C28.7196 22.8463 29.0526 22.7632 29.3536 22.6081C29.6547 22.4529 29.9156 22.23 30.116 21.957C29.7609 22.2002 29.3403 22.3296 28.91 22.328Z" fill="#D7B354"/>
<path d="M29.961 29.9489H2.628C1.93166 29.9468 1.26444 29.6693 0.772054 29.1769C0.279665 28.6845 0.00211014 28.0173 0 27.3209L0 28.3719C0.00211014 29.0683 0.279665 29.7355 0.772054 30.2279C1.26444 30.7203 1.93166 30.9978 2.628 30.9999H29.961C30.6573 30.9978 31.3246 30.7203 31.8169 30.2279C32.3093 29.7355 32.5869 29.0683 32.589 28.3719V27.3209C32.5869 28.0173 32.3093 28.6845 31.8169 29.1769C31.3246 29.6693 30.6573 29.9468 29.961 29.9489Z" fill="#B27245"/>
<path d="M29.961 9.44997H2.1C1.54377 9.44761 1.01101 9.2256 0.617693 8.83228C0.224379 8.43897 0.00236863 7.9062 0 7.34998L0 8.40098C0.00236863 8.9572 0.224379 9.48997 0.617693 9.88329C1.01101 10.2766 1.54377 10.4986 2.1 10.501H29.961C30.6573 10.5031 31.3246 10.7806 31.8169 11.273C32.3093 11.7654 32.5869 12.4326 32.589 13.129V12.078C32.5869 11.3816 32.3093 10.7144 31.8169 10.222C31.3246 9.72964 30.6573 9.45208 29.961 9.44997Z" fill="#CA8B5F"/>
</svg>
